# xmcd
#
# Track frame offsets:
#	150
#	17189
#	40285
#	60345
#	76761
#	92328
#	105495
#	117724
#	133957
#	148513
#	164045
#	178975
#	203827
#	220928
#	234238
#	250902
#	261728
#	275457
#	291557
#
# Disc length: 4085 seconds
#
# Revision: 0
# Processed by: cddbd v1.5.2PL0 Copyright (c) Steve Scherf et al.
# Submitted via: EasyCDDAExtractor 11.0.2.1
#
DISCID=260ff313
DTITLE=Various Artist - sucessos sertanejos
DYEAR=2006
DGENRE=FOlk
TTITLE0=VICTOR and LEO - FADA
TTITLE1=GUILHERME and SANTIAGO - SÓ QUEM AMA UMA VEZ
TTITLE2=VICTOR and LEO - QUEM DE NÓS DOIS
TTITLE3=ZEZÉ DI CAMARGO and LUCIANDO - DIZ PRO MEU OLHAR
TTITLE4=JOÃO BOSCO and VINÍCIUS - QUERENDO TE ENCONTRAR
TTITLE5=VICTOR and LEO - TELEFONE MUDO
TTITLE6=CESAR MENOTTI and FABIANO - MENSAGEM PRA ELA
TTITLE7=VICTOR and LEO - AMIGO APAIXONADO
TTITLE8=ZEZÉ DI CAMARGO and IVETE SANGALO - AMOR QUE FICA
TTITLE9=CESAR MENOTTI and FABIANO - LEILÃO
TTITLE10=FAZENDA SÃO FRANCISCO - 60 DIAS APAIXONADO
TTITLE11=TRADIÇÃO - BARQUINHO
TTITLE12=CESAR MENOTTI and FABIANO - COMO UM ANJO
TTITLE13=GINO and GENO - BEBO PA CARAI
TTITLE14=CESAR MENOTTI and FABIANO - AQUI NÃO
TTITLE15=GINO and GENO - EU JÁ FUI DE VOCÊ
TTITLE16=CESAR MENOTTI and FABIANO - CASO MARCADO
TTITLE17=VICTOR and LEO - SINTO FALTA DE VOCÊ
TTITLE18=TEODORO and SAMPAIO - ROELA DO ENO
EXTD=
EXTT0=
EXTT1=
EXTT2=
EXTT3=
EXTT4=
EXTT5=
EXTT6=
EXTT7=
EXTT8=
EXTT9=
EXTT10=
EXTT11=
EXTT12=
EXTT13=
EXTT14=
EXTT15=
EXTT16=
EXTT17=
EXTT18=
PLAYORDER=
